<svg width="90" height="18" viewBox="0 0 90 18" fill="none" xmlns="http://www.w3.org/2000/svg">
<path d="M6.15693 10H3.22263C1.99544 10 1 9.00568 1 7.77782V3.22218C1 1.99524 1.99453 1 3.22263 1H6.79836C6.39964 1.03923 6.01369 1.12406 5.64325 1.25725C5.11679 1.44699 4.68887 1.73252 4.35949 2.11291C4.03011 2.49331 3.86496 2.94942 3.86496 3.48216C3.86496 4.0523 4.00456 4.51571 4.28376 4.86965C4.56204 5.22451 4.89872 5.49088 5.29197 5.66785C5.68431 5.84573 6.19161 6.0227 6.81296 6.20059C7.32026 6.35293 7.71624 6.48611 8.00182 6.60014C8.2865 6.71417 8.52463 6.8729 8.71533 7.07541C8.90511 7.27792 9 7.53791 9 7.85445C9 8.32333 8.83212 8.68822 8.49635 8.94729C8.16058 9.20728 7.69434 9.33681 7.09854 9.33681C6.43887 9.33681 5.93522 9.22552 5.58668 9.00385C5.23814 8.78218 5.06387 8.48115 5.06387 8.10075C5.06387 7.82252 5.13686 7.60633 5.28285 7.45398C5.42883 7.30164 5.50182 7.21954 5.50182 7.20677C5.50182 7.14383 5.42245 7.05443 5.26369 6.9404C5.10493 6.82637 4.92427 6.7689 4.72172 6.7689C4.36679 6.7689 4.07847 6.88293 3.85675 7.11099C3.63504 7.33904 3.52372 7.63734 3.52372 8.00497C3.52372 8.65173 3.84033 9.15254 4.47445 9.50649C4.93431 9.76647 5.49635 9.92885 6.15693 10Z" fill="#FA865F"/>
<path d="M7.93096 0H3.06809C1.37666 0 0 1.37678 0 3.06836V7.93164C0 9.62417 1.37666 11 3.06809 11H7.93096C9.62334 11 11 9.62322 11 7.93164V3.06836C11 1.37678 9.62334 0 7.93096 0ZM10.7374 7.93164C10.7374 9.48099 9.48112 10.7373 7.93191 10.7373H3.06809C1.51888 10.7373 0.262627 9.48099 0.262627 7.93164V3.06836C0.262627 1.51901 1.51888 0.26265 3.06809 0.26265H7.93096C8.59179 0.26265 9.19859 0.493061 9.67833 0.87708C10.2244 1.40428 10.5847 2.28799 10.177 3.17266C10.123 3.32152 10.0424 3.45806 9.93527 3.58133C9.71815 3.83165 9.43087 3.95681 9.07533 3.95681C8.8639 3.95681 8.67712 3.89708 8.51215 3.77855C8.34718 3.66003 8.2647 3.56805 8.2647 3.50168C8.2647 3.48841 8.31779 3.43626 8.42303 3.34333C8.52827 3.25136 8.62403 3.14232 8.71031 3.01715C8.79564 2.89199 8.83925 2.74407 8.83925 2.57245C8.81271 2.21688 8.63446 1.94001 8.30546 1.74278C7.97552 1.54556 7.5868 1.446 7.13929 1.446C6.63868 1.446 6.20066 1.56168 5.8252 1.79209C5.44975 2.0225 5.26202 2.34204 5.26202 2.75071C5.26202 3.11956 5.34072 3.41255 5.49905 3.62969C5.65739 3.84682 5.89442 4.02224 6.21014 4.15309C6.52586 4.28489 7.02646 4.46315 7.71195 4.68692C8.40976 4.9107 8.95682 5.11835 9.35218 5.30989C9.68781 5.47203 9.95992 5.68442 10.177 5.94138C10.1799 5.94518 10.1827 5.94802 10.1856 5.95181C10.5534 6.39462 10.7374 6.96069 10.7374 7.53625V7.93164Z" fill="#FA865F"/>
<path d="M18.7557 17.9554C17.6742 17.9554 16.6964 17.7694 15.8223 17.3975C14.963 17.0256 14.2815 16.49 13.7778 15.7908C13.2741 15.0916 13.0148 14.2659 13 13.3138H16.3334C16.3779 13.9535 16.6001 14.4593 17.0001 14.8312C17.4149 15.2032 17.9779 15.3891 18.689 15.3891C19.415 15.3891 19.9854 15.218 20.4002 14.8759C20.815 14.5188 21.0224 14.0576 21.0224 13.4923C21.0224 13.0311 20.8817 12.6518 20.6002 12.3543C20.3187 12.0567 19.9631 11.8261 19.5335 11.6625C19.1187 11.484 18.5409 11.2906 17.8001 11.0823C16.7927 10.7848 15.9704 10.4947 15.3334 10.212C14.7112 9.91446 14.1704 9.47559 13.7111 8.8954C13.2667 8.30033 13.0444 7.51186 13.0444 6.52999C13.0444 5.60762 13.2741 4.80428 13.7334 4.11994C14.1926 3.43561 14.8371 2.91492 15.6667 2.55788C16.4964 2.18596 17.4446 2 18.5112 2C20.1113 2 21.4076 2.39424 22.4002 3.18271C23.4077 3.9563 23.9632 5.04231 24.0669 6.44073H20.6446C20.615 5.90516 20.3854 5.46629 19.9557 5.12413C19.5409 4.76708 18.9853 4.58856 18.289 4.58856C17.6816 4.58856 17.1927 4.74477 16.8223 5.05718C16.4668 5.3696 16.289 5.82334 16.289 6.41841C16.289 6.83496 16.4223 7.18456 16.689 7.46722C16.9705 7.73501 17.3112 7.95816 17.7112 8.13668C18.1261 8.30033 18.7038 8.49372 19.4446 8.71688C20.452 9.01441 21.2743 9.31195 21.9113 9.60948C22.5484 9.90702 23.0965 10.3533 23.5558 10.9484C24.0151 11.5435 24.2447 12.3245 24.2447 13.2915C24.2447 14.1246 24.0299 14.8982 23.6003 15.6123C23.1706 16.3264 22.541 16.8991 21.7113 17.3305C20.8817 17.7471 19.8965 17.9554 18.7557 17.9554Z" fill="#18063C"/>
<path d="M25.9198 11.5732C25.9198 10.3236 26.1642 9.21525 26.6531 8.24826C27.1568 7.28126 27.8309 6.53742 28.6754 6.01674C29.5347 5.49605 30.4902 5.2357 31.5421 5.2357C32.4607 5.2357 33.2607 5.42166 33.9422 5.79358C34.6385 6.1655 35.1941 6.63412 35.6089 7.19944V5.43654H38.7423V17.7992H35.6089V15.9916C35.2089 16.5718 34.6533 17.0553 33.9422 17.4421C33.2459 17.814 32.4384 18 31.5199 18C30.4828 18 29.5347 17.7322 28.6754 17.1967C27.8309 16.6611 27.1568 15.9098 26.6531 14.9428C26.1642 13.9609 25.9198 12.8377 25.9198 11.5732ZM35.6089 11.6179C35.6089 10.8591 35.4607 10.212 35.1644 9.67643C34.8681 9.12599 34.4681 8.70944 33.9644 8.42678C33.4607 8.12924 32.9199 7.98047 32.3421 7.98047C31.7644 7.98047 31.231 8.1218 30.7421 8.40446C30.2532 8.68712 29.8532 9.10367 29.5421 9.65411C29.2458 10.1897 29.0976 10.8294 29.0976 11.5732C29.0976 12.3171 29.2458 12.9716 29.5421 13.537C29.8532 14.0874 30.2532 14.5114 30.7421 14.8089C31.2458 15.1065 31.7792 15.2552 32.3421 15.2552C32.9199 15.2552 33.4607 15.1139 33.9644 14.8312C34.4681 14.5337 34.8681 14.1172 35.1644 13.5816C35.4607 13.0311 35.6089 12.3766 35.6089 11.6179Z" fill="#18063C"/>
<path d="M40.7587 11.5732C40.7587 10.3236 41.0031 9.21525 41.492 8.24826C41.9957 7.28126 42.6698 6.53742 43.5143 6.01674C44.3736 5.49605 45.3292 5.2357 46.381 5.2357C47.2996 5.2357 48.0996 5.42166 48.7811 5.79358C49.4774 6.1655 50.033 6.63412 50.4478 7.19944V5.43654H53.5812V17.7992H50.4478V15.9916C50.0478 16.5718 49.4922 17.0553 48.7811 17.4421C48.0848 17.814 47.2774 18 46.3588 18C45.3218 18 44.3736 17.7322 43.5143 17.1967C42.6698 16.6611 41.9957 15.9098 41.492 14.9428C41.0031 13.9609 40.7587 12.8377 40.7587 11.5732ZM50.4478 11.6179C50.4478 10.8591 50.2997 10.212 50.0033 9.67643C49.707 9.12599 49.307 8.70944 48.8033 8.42678C48.2996 8.12924 47.7588 7.98047 47.1811 7.98047C46.6033 7.98047 46.0699 8.1218 45.581 8.40446C45.0921 8.68712 44.6921 9.10367 44.381 9.65411C44.0847 10.1897 43.9365 10.8294 43.9365 11.5732C43.9365 12.3171 44.0847 12.9716 44.381 13.537C44.6921 14.0874 45.0921 14.5114 45.581 14.8089C46.0847 15.1065 46.6181 15.2552 47.1811 15.2552C47.7588 15.2552 48.2996 15.1139 48.8033 14.8312C49.307 14.5337 49.707 14.1172 50.0033 13.5816C50.2997 13.0311 50.4478 12.3766 50.4478 11.6179Z" fill="#18063C"/>
<path d="M61.7533 17.9554C60.6718 17.9554 59.694 17.7694 58.8199 17.3975C57.9606 17.0256 57.2791 16.49 56.7754 15.7908C56.2717 15.0916 56.0124 14.2659 55.9976 13.3138H59.331C59.3755 13.9535 59.5977 14.4593 59.9977 14.8312C60.4125 15.2032 60.9755 15.3891 61.6866 15.3891C62.4126 15.3891 62.983 15.218 63.3978 14.8759C63.8126 14.5188 64.02 14.0576 64.02 13.4923C64.02 13.0311 63.8793 12.6518 63.5978 12.3543C63.3163 12.0567 62.9607 11.8261 62.5311 11.6625C62.1163 11.484 61.5385 11.2906 60.7977 11.0823C59.7903 10.7848 58.968 10.4947 58.331 10.212C57.7087 9.91446 57.168 9.47559 56.7087 8.8954C56.2643 8.30033 56.042 7.51186 56.042 6.52999C56.042 5.60762 56.2717 4.80428 56.7309 4.11994C57.1902 3.43561 57.8347 2.91492 58.6643 2.55788C59.494 2.18596 60.4422 2 61.5088 2C63.1089 2 64.4052 2.39424 65.3978 3.18271C66.4053 3.9563 66.9608 5.04231 67.0645 6.44073H63.6422C63.6126 5.90516 63.383 5.46629 62.9533 5.12413C62.5385 4.76708 61.9829 4.58856 61.2866 4.58856C60.6792 4.58856 60.1903 4.74477 59.8199 5.05718C59.4643 5.3696 59.2866 5.82334 59.2866 6.41841C59.2866 6.83496 59.4199 7.18456 59.6866 7.46722C59.9681 7.73501 60.3088 7.95816 60.7088 8.13668C61.1236 8.30033 61.7014 8.49372 62.4422 8.71688C63.4496 9.01441 64.2719 9.31195 64.9089 9.60948C65.546 9.90702 66.0941 10.3533 66.5534 10.9484C67.0127 11.5435 67.2423 12.3245 67.2423 13.2915C67.2423 14.1246 67.0275 14.8982 66.5979 15.6123C66.1682 16.3264 65.5386 16.8991 64.7089 17.3305C63.8793 17.7471 62.8941 17.9554 61.7533 17.9554Z" fill="#18063C"/>
<path d="M73.3397 8.00279V13.9833C73.3397 14.3998 73.436 14.7048 73.6286 14.8982C73.836 15.0767 74.1767 15.166 74.6508 15.166H76.0953V17.7992H74.1397C71.5174 17.7992 70.2063 16.5198 70.2063 13.9609V8.00279H68.7396V5.43654H70.2063V2.37936H73.3397V5.43654H76.0953V8.00279H73.3397Z" fill="#18063C"/>
<path d="M83.5776 18C82.3924 18 81.3257 17.7397 80.3775 17.219C79.4294 16.6834 78.6812 15.9321 78.133 14.9651C77.5997 13.9981 77.333 12.8824 77.333 11.6179C77.333 10.3533 77.6071 9.23756 78.1553 8.27057C78.7182 7.30358 79.4812 6.55974 80.4442 6.03905C81.4072 5.50349 82.4813 5.2357 83.6665 5.2357C84.8517 5.2357 85.9258 5.50349 86.8888 6.03905C87.8518 6.55974 88.6074 7.30358 89.1555 8.27057C89.7185 9.23756 90 10.3533 90 11.6179C90 12.8824 89.7111 13.9981 89.1333 14.9651C88.5703 15.9321 87.7999 16.6834 86.8221 17.219C85.8592 17.7397 84.7776 18 83.5776 18ZM83.5776 15.2775C84.1406 15.2775 84.6665 15.1437 85.1554 14.8759C85.6591 14.5932 86.0592 14.1767 86.3555 13.6262C86.6518 13.0758 86.7999 12.4063 86.7999 11.6179C86.7999 10.4426 86.4888 9.54254 85.8666 8.91771C85.2591 8.27801 84.511 7.95816 83.6221 7.95816C82.7331 7.95816 81.985 8.27801 81.3776 8.91771C80.785 9.54254 80.4886 10.4426 80.4886 11.6179C80.4886 12.7931 80.7775 13.7006 81.3553 14.3403C81.9479 14.9651 82.6887 15.2775 83.5776 15.2775Z" fill="#18063C"/>
</svg>
