<svg width="51" height="71" viewBox="0 0 51 71" fill="none" xmlns="http://www.w3.org/2000/svg">
<path opacity="0.5" d="M47.264 1.29074C46.919 0.537582 46.0287 0.20673 45.2756 0.55176C44.5224 0.89679 44.1915 1.78705 44.5366 2.5402L47.264 1.29074ZM31.8309 33.8358L31.4903 32.3749L31.8309 33.8358ZM1.07862 56.9135C0.426589 57.4246 0.31228 58.3674 0.823306 59.0194L9.15095 69.6449C9.66197 70.2969 10.6048 70.4112 11.2568 69.9002C11.9089 69.3892 12.0232 68.4463 11.5122 67.7943L4.10982 58.3495L13.5547 50.9471C14.2067 50.4361 14.321 49.4932 13.81 48.8412C13.299 48.1892 12.3561 48.0749 11.7041 48.5859L1.07862 56.9135ZM44.5366 2.5402C46.4286 6.67022 47.9843 13.0959 46.6613 18.9676C46.0066 21.8735 44.6512 24.6333 42.2849 26.9498C39.916 29.2689 36.4595 31.2166 31.4903 32.3749L32.1714 35.2966C37.5719 34.0377 41.5527 31.8649 44.3836 29.0935C47.2171 26.3195 48.8238 23.0187 49.5879 19.627C51.1028 12.9037 49.3235 5.78644 47.264 1.29074L44.5366 2.5402ZM31.4903 32.3749C25.3079 33.8161 21.1474 32.794 18.5379 30.8829C15.9107 28.9588 14.6107 25.9579 14.4916 22.9567C14.3712 19.9222 15.462 17.1227 17.3064 15.5792C19.0388 14.1293 21.7338 13.5442 25.5068 15.4884L26.8809 12.8216C22.2564 10.4386 18.2168 10.9053 15.381 13.2785C12.6572 15.558 11.3462 19.3527 11.4939 23.0756C11.643 26.8318 13.281 30.7514 16.7653 33.3032C20.2673 35.868 25.3918 36.877 32.1714 35.2966L31.4903 32.3749ZM25.5068 15.4884C29.1769 17.3797 31.3139 20.9366 31.9849 25.3769C32.6588 29.8368 31.8245 35.089 29.6103 40.0408C25.1795 49.95 15.4659 58.2152 2.18445 56.605L1.82338 59.5832C16.7625 61.3944 27.5413 52.0174 32.349 41.2653C34.7541 35.8865 35.7256 30.0533 34.9512 24.9286C34.1738 19.7844 31.6082 15.2577 26.8809 12.8216L25.5068 15.4884Z" fill="#D26D60"/>
</svg>
